<svg width="52" height="52" viewBox="0 0 52 52" fill="none" xmlns="http://www.w3.org/2000/svg">
<circle cx="26" cy="26" r="26" fill="#EFF4FF"/>
<g clip-path="url(#clip0_1_3426)">
<path d="M28.3334 28.6273V31.0656C27.2775 30.6923 26.1474 30.5778 25.0381 30.7317C23.9287 30.8856 22.8725 31.3035 21.9581 31.9502C21.0437 32.5969 20.2978 33.4536 19.7831 34.4483C19.2684 35.443 18.9999 36.5466 19.0001 37.6666L16.6667 37.6655C16.6664 36.2408 16.9922 34.835 17.6191 33.5558C18.246 32.2765 19.1575 31.1577 20.2837 30.2852C21.4098 29.4126 22.7208 28.8095 24.1161 28.5219C25.5114 28.2343 26.954 28.27 28.3334 28.6261V28.6273ZM26.0001 27.1666C22.1326 27.1666 19.0001 24.0341 19.0001 20.1666C19.0001 16.2991 22.1326 13.1666 26.0001 13.1666C29.8676 13.1666 33.0001 16.2991 33.0001 20.1666C33.0001 24.0341 29.8676 27.1666 26.0001 27.1666ZM26.0001 24.8333C28.5784 24.8333 30.6667 22.745 30.6667 20.1666C30.6667 17.5883 28.5784 15.5 26.0001 15.5C23.4217 15.5 21.3334 17.5883 21.3334 20.1666C21.3334 22.745 23.4217 24.8333 26.0001 24.8333ZM32.7586 35.233L36.8827 31.1088L38.5336 32.7585L32.7586 38.5335L28.6332 34.4081L30.2841 32.7585L32.7574 35.233H32.7586Z" fill="#003DA5"/>
</g>
<defs>
<clipPath id="clip0_1_3426">
<rect width="28" height="28" fill="white" transform="translate(12 12)"/>
</clipPath>
</defs>
</svg>
