<svg width="50" height="51" viewBox="0 0 50 51" fill="none" xmlns="http://www.w3.org/2000/svg">
<rect x="0.998535" width="48.0029" height="49.6911" rx="24.0014" fill="white"/>
<g filter="url(#filter0_d_1_3862)">
<g filter="url(#filter1_d_1_3862)">
<rect x="14.1921" y="12.8101" width="20.2116" height="26.8666" rx="0.837301" transform="rotate(-3.11888 14.1921 12.8101)" fill="white"/>
<ellipse cx="16.9373" cy="15.6227" rx="0.985929" ry="0.98593" transform="rotate(-3.11888 16.9373 15.6227)" fill="#212121"/>
<rect x="18.2507" y="14.8105" width="3.20427" height="0.492965" rx="0.246482" transform="rotate(-3.11888 18.2507 14.8105)" fill="#E7E7E7"/>
<rect x="16.4304" y="24.4136" width="9.61282" height="0.492965" rx="0.246483" transform="rotate(-3.11888 16.4304 24.4136)" fill="#E7E7E7"/>
<rect x="16.614" y="27.8594" width="9.61281" height="0.492965" rx="0.246483" transform="rotate(-3.11888 16.614 27.8594)" fill="#E7E7E7"/>
<rect x="30.2117" y="23.6628" width="3.32751" height="0.492965" rx="0.246483" transform="rotate(-3.11888 30.2117 23.6628)" fill="#E7E7E7"/>
<rect x="30.3992" y="27.1084" width="3.32751" height="0.492963" rx="0.246482" transform="rotate(-3.11887 30.3992 27.1084)" fill="#E7E7E7"/>
<rect x="16.4968" y="25.644" width="4.06696" height="0.492965" rx="0.246483" transform="rotate(-3.11888 16.4968 25.644)" fill="#E7E7E7"/>
<rect x="16.6843" y="29.0898" width="4.06696" height="0.492965" rx="0.246483" transform="rotate(-3.11888 16.6843 29.0898)" fill="#E7E7E7"/>
<rect x="31.5085" y="24.8262" width="2.0951" height="0.492964" rx="0.246482" transform="rotate(-3.11887 31.5085 24.8262)" fill="#E7E7E7"/>
<rect x="31.696" y="28.2717" width="2.0951" height="0.492965" rx="0.246483" transform="rotate(-3.11889 31.696 28.2717)" fill="#E7E7E7"/>
<rect x="29.6492" y="13.3259" width="3.20427" height="0.492965" rx="0.246482" transform="rotate(-3.11888 29.6492 13.3259)" fill="#212121"/>
<rect x="29.8484" y="30.5942" width="3.94372" height="0.492966" rx="0.246483" transform="rotate(-3.11889 29.8484 30.5942)" fill="#6C6C6C"/>
<rect x="31.9382" y="32.7021" width="1.97186" height="0.492964" rx="0.246482" transform="rotate(-3.11888 31.9382 32.7021)" fill="#212121"/>
<rect x="16.321" y="22.4448" width="17.0073" height="0.739447" rx="0.369723" transform="rotate(-3.11888 16.321 22.4448)" fill="#212121"/>
<rect x="16.8718" y="32.5354" width="17.0073" height="0.246483" rx="0.123241" transform="rotate(-3.11888 16.8718 32.5354)" fill="#E7E7E7"/>
<rect x="17.0867" y="36.4731" width="7.64096" height="0.246481" rx="0.123241" transform="rotate(-3.11886 17.0867 36.4731)" fill="#E7E7E7"/>
<rect width="3.20427" height="0.246487" rx="0.123244" transform="matrix(0.998519 -0.0544089 0.0544068 0.998519 17.1414 37.4578)" fill="#E7E7E7"/>
<rect x="18.2976" y="15.6721" width="1.72538" height="0.492965" rx="0.246482" transform="rotate(-3.11888 18.2976 15.6721)" fill="#E7E7E7"/>
</g>
<g filter="url(#filter2_d_1_3862)">
<rect x="12.8328" y="12.7192" width="20.2116" height="26.8666" rx="0.837301" transform="rotate(-6.36742 12.8328 12.7192)" fill="white"/>
<circle cx="15.7305" cy="15.3715" r="0.985929" transform="rotate(-6.36742 15.7305 15.3715)" fill="#212121"/>
<rect x="16.9968" y="14.4861" width="3.20427" height="0.492965" rx="0.246483" transform="rotate(-6.36743 16.9968 14.4861)" fill="#E7E7E7"/>
<rect x="15.7234" y="24.1768" width="9.61281" height="0.492965" rx="0.246482" transform="rotate(-6.36742 15.7234 24.1768)" fill="#E7E7E7"/>
<rect x="16.1062" y="27.6062" width="9.61281" height="0.492965" rx="0.246482" transform="rotate(-6.36742 16.1062 27.6062)" fill="#E7E7E7"/>
<rect x="29.4421" y="22.6462" width="3.32751" height="0.492965" rx="0.246482" transform="rotate(-6.36742 29.4421 22.6462)" fill="#E7E7E7"/>
<rect x="29.825" y="26.0754" width="3.32751" height="0.492966" rx="0.246483" transform="rotate(-6.36744 29.825 26.0754)" fill="#E7E7E7"/>
<rect x="15.8601" y="25.4019" width="4.06696" height="0.492964" rx="0.246482" transform="rotate(-6.36741 15.8601 25.4019)" fill="#E7E7E7"/>
<rect x="16.2429" y="28.8311" width="4.06696" height="0.492963" rx="0.246482" transform="rotate(-6.3674 16.2429 28.8311)" fill="#E7E7E7"/>
<rect x="30.8015" y="23.7341" width="2.0951" height="0.492967" rx="0.246483" transform="rotate(-6.36745 30.8015 23.7341)" fill="#E7E7E7"/>
<rect x="31.1843" y="27.1638" width="2.0951" height="0.492963" rx="0.246482" transform="rotate(-6.3674 31.1843 27.1638)" fill="#E7E7E7"/>
<rect x="28.2937" y="12.3579" width="3.20427" height="0.492965" rx="0.246482" transform="rotate(-6.36743 28.2937 12.3579)" fill="#212121"/>
<rect x="29.4734" y="29.5869" width="3.94372" height="0.492965" rx="0.246483" transform="rotate(-6.36743 29.4734 29.5869)" fill="#6C6C6C"/>
<rect x="31.6765" y="31.5732" width="1.97187" height="0.492966" rx="0.246483" transform="rotate(-6.36741 31.6765 31.5732)" fill="#212121"/>
<rect x="15.5046" y="22.2173" width="17.0073" height="0.739447" rx="0.369723" transform="rotate(-6.36742 15.5046 22.2173)" fill="#212121"/>
<rect x="16.6257" y="32.2607" width="17.0073" height="0.246482" rx="0.123241" transform="rotate(-6.36742 16.6257 32.2607)" fill="#E7E7E7"/>
<rect x="17.0632" y="36.1799" width="7.64096" height="0.246483" rx="0.123241" transform="rotate(-6.36743 17.0632 36.1799)" fill="#E7E7E7"/>
<rect x="17.1726" y="37.1599" width="3.20427" height="0.246482" rx="0.123241" transform="rotate(-6.36741 17.1726 37.1599)" fill="#E7E7E7"/>
<rect x="17.0945" y="15.3438" width="1.72538" height="0.492965" rx="0.246483" transform="rotate(-6.36743 17.0945 15.3438)" fill="#E7E7E7"/>
</g>
<g filter="url(#filter3_d_1_3862)">
<rect x="11.8484" y="13.0381" width="20.2116" height="26.8666" rx="0.837301" transform="rotate(-8.33517 11.8484 13.0381)" fill="white"/>
<ellipse cx="14.8379" cy="15.5894" rx="0.98593" ry="0.985929" transform="rotate(-8.33517 14.8379 15.5894)" fill="#212121"/>
<rect x="16.071" y="14.6616" width="3.20427" height="0.492965" rx="0.246482" transform="rotate(-8.33517 16.071 14.6616)" fill="#E7E7E7"/>
<rect x="15.1296" y="24.3901" width="9.61281" height="0.492965" rx="0.246483" transform="rotate(-8.33518 15.1296 24.3901)" fill="#E7E7E7"/>
<rect x="15.6296" y="27.8044" width="9.61281" height="0.492965" rx="0.246482" transform="rotate(-8.33517 15.6296 27.8044)" fill="#E7E7E7"/>
<rect x="28.7898" y="22.3894" width="3.32751" height="0.492964" rx="0.246482" transform="rotate(-8.33517 28.7898 22.3894)" fill="#E7E7E7"/>
<rect x="29.2898" y="25.8037" width="3.32752" height="0.492964" rx="0.246482" transform="rotate(-8.33516 29.2898 25.8037)" fill="#E7E7E7"/>
<rect x="15.3093" y="25.6096" width="4.06696" height="0.492964" rx="0.246482" transform="rotate(-8.33516 15.3093 25.6096)" fill="#E7E7E7"/>
<rect x="15.8093" y="29.0239" width="4.06696" height="0.492965" rx="0.246482" transform="rotate(-8.33517 15.8093 29.0239)" fill="#E7E7E7"/>
<rect width="2.0951" height="0.492963" rx="0.246482" transform="matrix(0.989437 -0.144963 0.144964 0.989437 30.1843 23.4302)" fill="#E7E7E7"/>
<rect x="30.6882" y="26.8445" width="2.0951" height="0.492964" rx="0.246482" transform="rotate(-8.33515 30.6882 26.8445)" fill="#E7E7E7"/>
<rect x="27.2898" y="12.1462" width="3.20427" height="0.492965" rx="0.246483" transform="rotate(-8.33517 27.2898 12.1462)" fill="#212121"/>
<rect x="29.0593" y="29.325" width="3.94372" height="0.492964" rx="0.246482" transform="rotate(-8.33517 29.0593 29.325)" fill="#6C6C6C"/>
<rect width="1.97185" height="0.492966" rx="0.246483" transform="matrix(0.989437 -0.144964 0.144963 0.989437 31.3289 31.2341)" fill="#212121"/>
<rect x="14.8484" y="22.4395" width="17.0073" height="0.739448" rx="0.369724" transform="rotate(-8.33518 14.8484 22.4395)" fill="#212121"/>
<rect x="16.3093" y="32.4382" width="17.0073" height="0.246483" rx="0.123241" transform="rotate(-8.33518 16.3093 32.4382)" fill="#E7E7E7"/>
<rect x="16.8835" y="36.3401" width="7.64096" height="0.246483" rx="0.123241" transform="rotate(-8.33518 16.8835 36.3401)" fill="#E7E7E7"/>
<rect x="17.0242" y="37.3157" width="3.20427" height="0.246482" rx="0.123241" transform="rotate(-8.33515 17.0242 37.3157)" fill="#E7E7E7"/>
<rect x="16.2" y="15.5149" width="1.72538" height="0.492965" rx="0.246482" transform="rotate(-8.33517 16.2 15.5149)" fill="#E7E7E7"/>
</g>
<g filter="url(#filter4_d_1_3862)">
<rect x="10.8601" y="13.3713" width="20.2116" height="26.8666" rx="0.837301" transform="rotate(-10 10.8601 13.3713)" fill="white"/>
<ellipse cx="13.9202" cy="15.8344" rx="0.985929" ry="0.98593" transform="rotate(-10 13.9202 15.8344)" fill="#212121"/>
<rect x="15.1296" y="14.8706" width="3.20427" height="0.492966" rx="0.246483" transform="rotate(-10 15.1296 14.8706)" fill="#E7E7E7"/>
<rect x="14.4734" y="24.623" width="9.61281" height="0.492964" rx="0.246482" transform="rotate(-9.99999 14.4734 24.623)" fill="#E7E7E7"/>
<rect x="15.071" y="28.021" width="9.61281" height="0.492965" rx="0.246482" transform="rotate(-10 15.071 28.021)" fill="#E7E7E7"/>
<rect x="28.0671" y="22.2261" width="3.32751" height="0.492965" rx="0.246482" transform="rotate(-10 28.0671 22.2261)" fill="#E7E7E7"/>
<rect x="28.6648" y="25.6245" width="3.32751" height="0.492965" rx="0.246482" transform="rotate(-10 28.6648 25.6245)" fill="#E7E7E7"/>
<rect x="14.6882" y="25.8367" width="4.06696" height="0.492965" rx="0.246482" transform="rotate(-10 14.6882 25.8367)" fill="#E7E7E7"/>
<rect x="15.282" y="29.2346" width="4.06696" height="0.492966" rx="0.246483" transform="rotate(-10 15.282 29.2346)" fill="#E7E7E7"/>
<rect x="29.4929" y="23.2256" width="2.0951" height="0.492965" rx="0.246482" transform="rotate(-9.99999 29.4929 23.2256)" fill="#E7E7E7"/>
<rect x="30.0906" y="26.6243" width="2.0951" height="0.492964" rx="0.246482" transform="rotate(-10 30.0906 26.6243)" fill="#E7E7E7"/>
<rect x="26.2664" y="12.0312" width="3.20427" height="0.492965" rx="0.246482" transform="rotate(-10 26.2664 12.0312)" fill="#212121"/>
<rect x="28.532" y="29.1511" width="3.94372" height="0.492964" rx="0.246482" transform="rotate(-9.99998 28.532 29.1511)" fill="#6C6C6C"/>
<rect width="1.97186" height="0.492964" rx="0.246482" transform="matrix(0.984808 -0.173648 0.173649 0.984808 30.8601 30.9932)" fill="#212121"/>
<rect x="14.1296" y="22.6812" width="17.0073" height="0.739447" rx="0.369724" transform="rotate(-10 14.1296 22.6812)" fill="#212121"/>
<rect x="15.8835" y="32.6333" width="17.0073" height="0.246482" rx="0.123241" transform="rotate(-10 15.8835 32.6333)" fill="#E7E7E7"/>
<rect x="16.5671" y="36.5171" width="7.64096" height="0.246482" rx="0.123241" transform="rotate(-10 16.5671 36.5171)" fill="#E7E7E7"/>
<rect width="3.20427" height="0.246485" rx="0.123243" transform="matrix(0.984807 -0.17365 0.173646 0.984808 16.739 37.488)" fill="#E7E7E7"/>
<rect x="15.282" y="15.7205" width="1.72538" height="0.492965" rx="0.246483" transform="rotate(-10 15.282 15.7205)" fill="#E7E7E7"/>
</g>
</g>
<g filter="url(#filter5_d_1_3862)">
<path d="M34.6508 10.2684C35.2283 9.93496 35.9398 9.93496 36.5172 10.2684L38.2068 11.2438C38.7843 11.5772 39.14 12.1934 39.14 12.8602V14.8111C39.14 15.4779 38.7843 16.0941 38.2068 16.4275L36.5172 17.4029C35.9398 17.7363 35.2283 17.7363 34.6508 17.4029L32.9613 16.4275C32.3838 16.0941 32.0281 15.4779 32.0281 14.8111V12.8602C32.0281 12.1934 32.3838 11.5772 32.9613 11.2438L34.6508 10.2684Z" fill="#003DA5"/>
</g>
<g clip-path="url(#clip0_1_3862)">
<path d="M37.366 14.5865L36.1333 15.8183L33.8738 15.8192C33.8195 15.8194 33.7673 15.798 33.7287 15.7598C33.6901 15.7215 33.6682 15.6695 33.668 15.6151V12.3251C33.668 12.2125 33.7594 12.1211 33.872 12.1211H37.162C37.2746 12.1211 37.366 12.2148 37.366 12.327V14.5865V14.5865ZM36.9551 12.532H34.0789V15.4083H35.7224V14.381C35.7225 14.3307 35.7409 14.2821 35.7744 14.2445C35.8078 14.2069 35.8539 14.1829 35.9039 14.177L35.9279 14.1756L36.9551 14.1754V12.532ZM36.7848 14.5863L36.1333 14.5865V15.2375L36.7848 14.5863Z" fill="white"/>
</g>
<defs>
<filter id="filter0_d_1_3862" x="5.24014" y="9.17235" width="36.3239" height="41.2082" filterUnits="userSpaceOnUse" color-interpolation-filters="sRGB">
<feFlood flood-opacity="0" result="BackgroundImageFix"/>
<feColorMatrix in="SourceAlpha" type="matrix" values="0 0 0 0 0 0 0 0 0 0 0 0 0 0 0 0 0 0 127 0" result="hardAlpha"/>
<feOffset dy="4.93074"/>
<feGaussianBlur stdDeviation="2.87627"/>
<feComposite in2="hardAlpha" operator="out"/>
<feColorMatrix type="matrix" values="0 0 0 0 0 0 0 0 0 0.321569 0 0 0 0 0.368627 0 0 0 0.08 0"/>
<feBlend mode="normal" in2="BackgroundImageFix" result="effect1_dropShadow_1_3862"/>
<feBlend mode="normal" in="SourceGraphic" in2="effect1_dropShadow_1_3862" result="shape"/>
</filter>
<filter id="filter1_d_1_3862" x="12.2826" y="10.6382" width="25.4623" height="31.7453" filterUnits="userSpaceOnUse" color-interpolation-filters="sRGB">
<feFlood flood-opacity="0" result="BackgroundImageFix"/>
<feColorMatrix in="SourceAlpha" type="matrix" values="0 0 0 0 0 0 0 0 0 0 0 0 0 0 0 0 0 0 127 0" result="hardAlpha"/>
<feOffset dy="0.837301"/>
<feGaussianBlur stdDeviation="0.976851"/>
<feComposite in2="hardAlpha" operator="out"/>
<feColorMatrix type="matrix" values="0 0 0 0 0 0 0 0 0 0 0 0 0 0 0 0 0 0 0.08 0"/>
<feBlend mode="normal" in2="BackgroundImageFix" result="effect1_dropShadow_1_3862"/>
<feBlend mode="normal" in="SourceGraphic" in2="effect1_dropShadow_1_3862" result="shape"/>
</filter>
<filter id="filter2_d_1_3862" x="10.9667" y="9.44903" width="26.7985" height="32.6745" filterUnits="userSpaceOnUse" color-interpolation-filters="sRGB">
<feFlood flood-opacity="0" result="BackgroundImageFix"/>
<feColorMatrix in="SourceAlpha" type="matrix" values="0 0 0 0 0 0 0 0 0 0 0 0 0 0 0 0 0 0 127 0" result="hardAlpha"/>
<feOffset dy="0.837301"/>
<feGaussianBlur stdDeviation="0.976851"/>
<feComposite in2="hardAlpha" operator="out"/>
<feColorMatrix type="matrix" values="0 0 0 0 0 0 0 0 0 0 0 0 0 0 0 0 0 0 0.08 0"/>
<feBlend mode="normal" in2="BackgroundImageFix" result="effect1_dropShadow_1_3862"/>
<feBlend mode="normal" in="SourceGraphic" in2="effect1_dropShadow_1_3862" result="shape"/>
</filter>
<filter id="filter3_d_1_3862" x="10.007" y="9.10406" width="27.5754" height="33.1955" filterUnits="userSpaceOnUse" color-interpolation-filters="sRGB">
<feFlood flood-opacity="0" result="BackgroundImageFix"/>
<feColorMatrix in="SourceAlpha" type="matrix" values="0 0 0 0 0 0 0 0 0 0 0 0 0 0 0 0 0 0 127 0" result="hardAlpha"/>
<feOffset dy="0.837301"/>
<feGaussianBlur stdDeviation="0.976851"/>
<feComposite in2="hardAlpha" operator="out"/>
<feColorMatrix type="matrix" values="0 0 0 0 0 0 0 0 0 0 0 0 0 0 0 0 0 0 0.08 0"/>
<feBlend mode="normal" in2="BackgroundImageFix" result="effect1_dropShadow_1_3862"/>
<feBlend mode="normal" in="SourceGraphic" in2="effect1_dropShadow_1_3862" result="shape"/>
</filter>
<filter id="filter4_d_1_3862" x="9.03897" y="8.87774" width="28.2121" height="33.6105" filterUnits="userSpaceOnUse" color-interpolation-filters="sRGB">
<feFlood flood-opacity="0" result="BackgroundImageFix"/>
<feColorMatrix in="SourceAlpha" type="matrix" values="0 0 0 0 0 0 0 0 0 0 0 0 0 0 0 0 0 0 127 0" result="hardAlpha"/>
<feOffset dy="0.837301"/>
<feGaussianBlur stdDeviation="0.976851"/>
<feComposite in2="hardAlpha" operator="out"/>
<feColorMatrix type="matrix" values="0 0 0 0 0 0 0 0 0 0 0 0 0 0 0 0 0 0 0.08 0"/>
<feBlend mode="normal" in2="BackgroundImageFix" result="effect1_dropShadow_1_3862"/>
<feBlend mode="normal" in="SourceGraphic" in2="effect1_dropShadow_1_3862" result="shape"/>
</filter>
<filter id="filter5_d_1_3862" x="26.6864" y="6.32025" width="18.6169" height="19.1398" filterUnits="userSpaceOnUse" color-interpolation-filters="sRGB">
<feFlood flood-opacity="0" result="BackgroundImageFix"/>
<feColorMatrix in="SourceAlpha" type="matrix" values="0 0 0 0 0 0 0 0 0 0 0 0 0 0 0 0 0 0 127 0" result="hardAlpha"/>
<feOffset dx="0.410895" dy="2.05448"/>
<feGaussianBlur stdDeviation="2.87627"/>
<feComposite in2="hardAlpha" operator="out"/>
<feColorMatrix type="matrix" values="0 0 0 0 0.176471 0 0 0 0 0.243137 0 0 0 0 0.313726 0 0 0 0.12 0"/>
<feBlend mode="normal" in2="BackgroundImageFix" result="effect1_dropShadow_1_3862"/>
<feBlend mode="normal" in="SourceGraphic" in2="effect1_dropShadow_1_3862" result="shape"/>
</filter>
<clipPath id="clip0_1_3862">
<rect width="4.93074" height="4.93074" fill="white" transform="translate(33.0515 11.5046)"/>
</clipPath>
</defs>
</svg>
